<svg xmlns="http://www.w3.org/2000/svg" width="64" height="64" viewBox="0 0 64 64">
  <defs>
    <linearGradient id="g" x1="0" y1="0" x2="0" y2="1">
      <stop offset="0" stop-color="#7eb8da"/>
      <stop offset="1" stop-color="#4a7aa8"/>
    </linearGradient>
  </defs>
  <path d="M18 22h28c3 0 6 2.5 6 6v26c0 3.5-3 6-6 6H18c-3 0-6-2.5-6-6V28c0-3.5 3-6 6-6z" fill="url(#g)" stroke="#2d4a66" stroke-width="2"/>
  <rect x="10" y="28" width="8" height="22" rx="3" fill="#3d6288" stroke="#2d4a66" stroke-width="1.5"/>
  <rect x="46" y="28" width="8" height="22" rx="3" fill="#3d6288" stroke="#2d4a66" stroke-width="1.5"/>
  <path d="M24 22V16c0-4 4-8 8-8s8 4 8 8v6" fill="none" stroke="#5a8cc4" stroke-width="3" stroke-linecap="round"/>
  <ellipse cx="32" cy="14" rx="8" ry="5" fill="#8ec8f0" stroke="#2d4a66" stroke-width="1.5"/>
  <rect x="26" y="34" width="12" height="10" rx="2" fill="#2a4a6a" opacity="0.45"/>
</svg>
